<?xml version="1.0" encoding="utf-8"?>
<!-- Generator: Adobe Illustrator 26.0.1, SVG Export Plug-In . SVG Version: 6.00 Build 0)  -->
<svg version="1.1" xmlns="http://www.w3.org/2000/svg" xmlns:xlink="http://www.w3.org/1999/xlink" x="0px" y="0px"
	 viewBox="0 0 280 160" style="enable-background:new 0 0 280 160;" xml:space="preserve">
<style type="text/css">
	.st0{fill:#13AAAA;}
	.st1{fill:#FFFFFF;}
</style>
<g id="レイヤー_1">
	<g>
		<path class="st0" d="M55.7,68.2h15.3c8.9,0,16.3,3.1,16.3,13.2c0,6.1-2.9,10-7.2,12l9.3,16.5H78.2l-7.7-14.7h-4.8v14.7h-10V68.2z
			 M70.2,87.4c4.8,0,7.3-2.1,7.3-6c0-3.9-2.6-5.2-7.3-5.2h-4.5v11.2H70.2z"/>
		<path class="st0" d="M96.6,68.2h10v41.7h-10V68.2z"/>
		<path class="st0" d="M113.6,104.7l5.7-6.9c2.9,2.5,6.8,4.3,10.1,4.3c3.7,0,5.4-1.4,5.4-3.6c0-2.4-2.3-3.2-5.9-4.7l-5.3-2.2
			c-4.4-1.7-8.5-5.4-8.5-11.4c0-7,6.3-12.6,15.1-12.6c4.8,0,9.9,1.8,13.6,5.5l-5,6.3c-2.7-2.1-5.3-3.2-8.6-3.2
			c-3.1,0-4.9,1.2-4.9,3.4c0,2.4,2.6,3.2,6.3,4.7l5.2,2.1c5.2,2.1,8.2,5.5,8.2,11.4c0,6.9-5.8,13-15.9,13
			C123.7,110.7,117.9,108.7,113.6,104.7z"/>
		<path class="st0" d="M151.1,68.2h26.4v8.3h-16.4v7.7h13.9v8.4h-13.9v8.8h17v8.4h-27V68.2z"/>
	</g>
	<path class="st0" d="M204.5,70.9c-1-1.3-5.4-8.2-8.1-11.2s-9.8-9.2-19.5-14.2s-21.6-8.6-34.6-10.8c-13-2.2-38.9-1.4-57.1,2.6
		C60.1,42.6,27.8,61.4,35,91.5c7.6,36.8,68.8,38.8,98.9,37.6c29.4-1.8,58.8-7.9,86-19.7c9-3.8,17.8-8.2,26.1-13.5
		c0,0,9.5-5.9,9.5-5.9l-8.6,6.4c-16.3,11.7-35,19.7-53.9,26.1c-33.4,10.5-69.3,15.2-104.1,10.9c-24.9-2.5-56.3-12-63-39.8
		c-6.6-22.9,8.4-43.9,27.6-54.7c35.3-19.9,82.1-12.8,85.7-12.4c3.6,0.4,21.5,2.9,38.7,11s25.1,17.5,26.5,19.3c2.4,3.1,4.4,6.6,6,9.1
		c1.7,2.5,0.6,5.4-0.7,6C208.5,72.4,206.3,73.3,204.5,70.9z"/>
</g>
<g id="レイヤー_1のコピー">
	<g>
		<path class="st1" d="M55.7,68.2h15.3c8.9,0,16.3,3.1,16.3,13.2c0,6.1-2.9,10-7.2,12l9.3,16.5H78.2l-7.7-14.7h-4.8v14.7h-10V68.2z
			 M70.2,87.4c4.8,0,7.3-2.1,7.3-6c0-3.9-2.6-5.2-7.3-5.2h-4.5v11.2H70.2z"/>
		<path class="st1" d="M96.6,68.2h10v41.7h-10V68.2z"/>
		<path class="st1" d="M113.6,104.7l5.7-6.9c2.9,2.5,6.8,4.3,10.1,4.3c3.7,0,5.4-1.4,5.4-3.6c0-2.4-2.3-3.2-5.9-4.7l-5.3-2.2
			c-4.4-1.7-8.5-5.4-8.5-11.4c0-7,6.3-12.6,15.1-12.6c4.8,0,9.9,1.8,13.6,5.5l-5,6.3c-2.7-2.1-5.3-3.2-8.6-3.2
			c-3.1,0-4.9,1.2-4.9,3.4c0,2.4,2.6,3.2,6.3,4.7l5.2,2.1c5.2,2.1,8.2,5.5,8.2,11.4c0,6.9-5.8,13-15.9,13
			C123.7,110.7,117.9,108.7,113.6,104.7z"/>
		<path class="st1" d="M151.1,68.2h26.4v8.3h-16.4v7.7h13.9v8.4h-13.9v8.8h17v8.4h-27V68.2z"/>
	</g>
	<path class="st1" d="M204.5,70.9c-1-1.3-5.4-8.2-8.1-11.2s-9.8-9.2-19.5-14.2s-21.6-8.6-34.6-10.8c-13-2.2-38.9-1.4-57.1,2.6
		C60.1,42.6,27.8,61.4,35,91.5c7.6,36.8,68.8,38.8,98.9,37.6c29.4-1.8,58.8-7.9,86-19.7c9-3.8,17.8-8.2,26.1-13.5
		c0,0,9.5-5.9,9.5-5.9l-8.6,6.4c-16.3,11.7-35,19.7-53.9,26.1c-33.4,10.5-69.3,15.2-104.1,10.9c-24.9-2.5-56.3-12-63-39.8
		c-6.6-22.9,8.4-43.9,27.6-54.7c35.3-19.9,82.1-12.8,85.7-12.4c3.6,0.4,21.5,2.9,38.7,11s25.1,17.5,26.5,19.3c2.4,3.1,4.4,6.6,6,9.1
		c1.7,2.5,0.6,5.4-0.7,6C208.5,72.4,206.3,73.3,204.5,70.9z"/>
</g>
</svg>
